<svg width="30" height="30" fill="none" xmlns="http://www.w3.org/2000/svg"><g clip-path="url('#clip0_847_616')" fill="#383838"><path d="M15 3.709a11.781 11.781 0 0 1 8.33 20.112 11.78 11.78 0 0 1-20.137-8.323A11.78 11.78 0 0 1 6.669 7.16 11.704 11.704 0 0 1 15 3.709ZM15 .99C6.992.99.5 7.482.5 15.49s6.492 14.5 14.5 14.5 14.5-6.491 14.5-14.5C29.5 7.482 23.008.99 15 .99Z"/><path d="M12.852 21.762a1.36 1.36 0 0 1-.963-.396l-4.68-4.68a1.36 1.36 0 0 1 1.922-1.922l3.696 3.694 7.92-8.32a1.359 1.359 0 1 1 1.969 1.874l-8.88 9.329a1.362 1.362 0 0 1-.967.421h-.017Z"/></g><defs><clipPath id="clip0_847_616"><path fill="#fff" transform="translate(.5 .962)" d="M0 0h29v29H0z"/></clipPath></defs></svg>