<svg width="32" height="32" fill="none" xmlns="http://www.w3.org/2000/svg"><g clip-path="url('#clip0_847_609')" fill="#383838"><path d="M30.53 16.256c-1.036-.854-2.675-.928-3.75.226l-2.67 2.866a2.73 2.73 0 0 0-2.601-1.917h-4.764c-.361 0-.482-.138-1.11-.622a6.37 6.37 0 0 0-8.376.02l-1.751 1.542a2.714 2.714 0 0 0-2.498-.032l-2.008 1.004a.909.909 0 0 0-.406 1.219l5.449 10.897c.224.45.77.63 1.219.407l2.008-1.005a2.722 2.722 0 0 0 1.505-2.532h10.732c1.99 0 3.891-.95 5.085-2.543l4.36-5.813c.846-1.127.712-2.78-.424-3.717ZM8.46 29.236l-1.196.6-4.637-9.274 1.196-.598a.908.908 0 0 1 1.218.406l3.825 7.649a.908.908 0 0 1-.407 1.218ZM29.5 18.884l-4.36 5.813a4.562 4.562 0 0 1-3.632 1.816H10.143L6.74 19.706l1.719-1.513a4.552 4.552 0 0 1 6 0c1.007.887 1.634 1.054 2.286 1.054h4.764a.91.91 0 0 1 0 1.817H16.87a.908.908 0 0 0 0 1.816h5.247c.754 0 1.48-.316 1.994-.868l3.998-4.292a.909.909 0 0 1 1.392 1.163ZM19.596 7.16A3.618 3.618 0 0 0 20.6 4.656c0-1.999-1.616-3.693-3.633-3.693-2.002 0-3.693 1.691-3.693 3.693 0 .941.369 1.83 1.038 2.512-1.66.93-2.854 2.718-2.854 4.814v.908c0 .501.407.908.908.908h9.142a.908.908 0 0 0 .908-.908v-.908c0-2.055-1.13-3.87-2.821-4.822Zm-2.628-4.38c.985 0 1.816.86 1.816 1.876a1.818 1.818 0 0 1-1.816 1.817c-1.017 0-1.877-.832-1.877-1.817 0-1 .878-1.877 1.877-1.877Zm-3.693 9.202c0-2.002 1.69-3.693 3.693-3.693s3.633 1.656 3.633 3.693h-7.326Z"/></g><defs><clipPath id="clip0_847_609"><path fill="#fff" transform="translate(.5 .962)" d="M0 0h31v31H0z"/></clipPath></defs></svg>