<svg width="354" height="104" fill="none" xmlns="http://www.w3.org/2000/svg"><path d="M139.855 22.828v9.513c0 2.735.738 3.867 3.342 3.867 1.434 0 2.692-.262 3.78-.607l.957 4.256c-1.564.564-3.954 1-6.082 1-4.951 0-7.385-1.476-7.385-8.035v-9.99h-3.693V18.14h3.693v-3.736l5.388-2.216v5.952h7.341v4.693h-7.341v-.004ZM151.36 18.135h5.384v1.651c.782-1.214 2.478-2.302 5.646-2.302.738 0 1.477.043 2.259.13v5.127a13.997 13.997 0 0 0-2.823-.306c-2.692 0-5.082.87-5.082 2.477v15.334h-5.384V18.135ZM186.279 39.114c-2.779 1.084-6.908 1.74-9.989 1.74-6.992 0-9.338-1.609-9.338-7.386 0-6.253 3.517-7.254 8.687-7.254 1.87 0 3.605.219 5.475.608 0-3.867-.913-4.82-5.514-4.82-2.434 0-4.864.433-6.691 1.084l-1-4.431c2.303-.608 5.645-1.171 8.814-1.171 6.559 0 9.556 1.997 9.556 8.6v13.03Zm-5.169-8.643c-1.215-.262-2.779-.39-4.387-.39-3.042 0-4.126.35-4.126 3.169 0 2.998.826 3.474 4.082 3.474 1.564 0 3.168-.306 4.431-.739v-5.514ZM197.523 40.242h-5.384V19.393c2.692-1.044 6.948-1.91 10.466-1.91 6.214 0 8.993 2.478 8.993 10.427v12.336h-5.388V28.474c0-4.908-.913-6.122-4.732-6.122-1.39 0-2.649.174-3.955.52v17.374-.005ZM232.136 22.915c-1.735-.563-4.212-1.044-6.428-1.044-2.648 0-3.994.262-3.994 2.56 0 1.521.957 2.041 4.562 2.39 5.34.565 7.687 2.216 7.687 6.647 0 5.733-3.819 7.385-9.47 7.385-2.346 0-5.82-.432-7.905-1.17l1.128-4.257c1.608.564 4.343 1.044 6.559 1.044 2.954 0 4.343-.389 4.343-2.691 0-1.565-.869-2.303-4.732-2.649-4.864-.388-7.473-1.739-7.473-6.296 0-5.733 3.868-7.342 9.47-7.342 2.303 0 5.213.477 7.424 1.215l-1.171 4.213v-.005ZM245.075 18.135h7.167v4.693h-7.167v17.418h-5.388V22.828h-3.692v-4.693h3.692v-1.477c0-6.428 3.693-7.862 8.036-7.862 2.041 0 4.387.39 6.079.957l-1.215 4.257c-1.045-.35-2.692-.608-3.994-.608-2.128 0-3.518.739-3.518 3.562v1.17ZM254.326 29.081c0-9.032 3.518-11.597 10.509-11.597 6.992 0 10.597 2.565 10.597 11.597 0 9.033-3.474 11.772-10.597 11.772-7.122 0-10.509-2.692-10.509-11.772Zm5.558.088c0 6.122 1.171 7.34 4.951 7.34 3.78 0 5.039-1.214 5.039-7.34 0-6.127-1.171-7.342-5.039-7.342-3.867 0-4.951 1-4.951 7.341ZM280.641 18.135h5.383v1.651c.783-1.214 2.478-2.302 5.646-2.302.739 0 1.477.043 2.259.13v5.127a13.995 13.995 0 0 0-2.822-.306c-2.692 0-5.083.87-5.083 2.477v15.334h-5.383V18.135ZM302.486 40.242h-5.384V19.393c2.692-1.044 6.69-1.91 10.208-1.91 2.478 0 4.343.477 5.646 1.478 2.39-.87 5.339-1.477 7.861-1.477 6.209 0 8.687 2.477 8.687 10.426v12.336h-5.388V28.474c0-4.908-.87-6.122-4.431-6.122-1.084 0-2.866.174-4.3.607.389 1.302.608 2.954.608 4.951v12.336h-5.384V28.474c0-4.908-.87-6.122-4.431-6.122-1.171 0-2.609.218-3.692.52v17.374-.005ZM353.818 39.114c-2.78 1.084-6.909 1.74-9.99 1.74-6.991 0-9.338-1.609-9.338-7.386 0-6.253 3.518-7.254 8.687-7.254 1.87 0 3.605.219 5.476.608 0-3.867-.914-4.82-5.515-4.82-2.434 0-4.864.433-6.69 1.084l-1.001-4.431c2.303-.608 5.646-1.171 8.814-1.171 6.559 0 9.557 1.997 9.557 8.6v13.03Zm-5.17-8.643c-1.215-.262-2.779-.39-4.387-.39-3.042 0-4.125.35-4.125 3.169 0 2.998.826 3.474 4.081 3.474a14.19 14.19 0 0 0 4.431-.739v-5.514ZM148.022 62.082c-1.735-.564-4.213-1.045-6.428-1.045-2.648 0-3.994.263-3.994 2.561 0 1.52.957 2.04 4.562 2.39 5.34.564 7.686 2.216 7.686 6.647 0 5.733-3.819 7.385-9.469 7.385-2.347 0-5.821-.433-7.905-1.171l1.127-4.257c1.608.564 4.344 1.045 6.559 1.045 2.954 0 4.344-.39 4.344-2.692 0-1.564-.87-2.303-4.733-2.648-4.863-.389-7.472-1.74-7.472-6.297 0-5.733 3.867-7.341 9.469-7.341 2.303 0 5.214.476 7.425 1.215l-1.171 4.212v-.004ZM173.122 78.285c-2.779 1.084-6.909 1.74-9.99 1.74-6.991 0-9.338-1.609-9.338-7.386 0-6.253 3.518-7.254 8.687-7.254 1.871 0 3.605.219 5.476.608 0-3.868-.914-4.82-5.515-4.82-2.434 0-4.864.432-6.69 1.084l-1.001-4.431c2.303-.608 5.646-1.172 8.814-1.172 6.559 0 9.557 1.997 9.557 8.6v13.031Zm-5.17-8.644c-1.214-.262-2.779-.388-4.387-.388-3.041 0-4.125.35-4.125 3.168 0 2.997.826 3.474 4.081 3.474a14.19 14.19 0 0 0 4.431-.739v-5.515ZM192.921 57.306h5.388v20.848c-2.735 1.044-6.948 1.91-10.47 1.91-6.209 0-8.988-2.478-8.988-10.427V57.301h5.383v11.772c0 4.908.914 6.123 4.693 6.123 1.434 0 2.692-.175 3.994-.564v-17.33.004Zm-8.25-2.561 5.253-5.602h5.777l-6.297 5.602h-4.733ZM223.798 78.416c-2.39.957-6.471 1.608-9.644 1.608-7.297 0-10.64-2.604-10.64-11.685 0-9.08 3.692-11.684 9.6-11.684 2.522 0 4.125.607 5.301 1.258v-9.858h5.383v30.361Zm-5.383-15.071c0-1.303-1.91-2.128-4.344-2.128-3.78 0-4.995 1.52-4.995 7.035 0 6.039 1.259 7.166 5.083 7.166 1.477 0 3.128-.262 4.256-.65V63.344ZM247.509 78.805c-2.216.738-5.471 1.215-7.73 1.215-6.384 0-10.728-2.692-10.728-11.772s3.867-11.598 10.295-11.598c6.992 0 10.033 2.39 9.64 13.118h-14.289c.043 4.733 1.866 5.69 5.733 5.69 1.564 0 4.475-.394 6.214-.914l.869 4.257-.004.004ZM234.74 65.643h9.295c-.175-3.91-1.302-4.732-4.387-4.732-3.387 0-4.562 1.083-4.908 4.732ZM44.304 69.48V47.508a2.792 2.792 0 0 0-2.792-2.792H36.78a2.792 2.792 0 0 1-2.793-2.792v-6.17a2.792 2.792 0 0 1 2.793-2.793h28.766a2.792 2.792 0 0 1 2.792 2.793v6.17a2.792 2.792 0 0 1-2.792 2.792h-4.733a2.792 2.792 0 0 0-2.792 2.792V69.48a2.792 2.792 0 0 1-2.792 2.792h-8.123a2.792 2.792 0 0 1-2.793-2.792h-.009ZM19.785 33.237a37.393 37.393 0 0 1 13.359-13.464c5.528-3.255 11.938-5.117 18.838-5.121 6.437 0 12.44 1.621 17.71 4.479a37.35 37.35 0 0 1 11.585 9.81 2.783 2.783 0 0 0 3.754.595l7.525-5.083a2.804 2.804 0 0 0 .66-4.02A52.012 52.012 0 0 0 76.685 6.258 51.608 51.608 0 0 0 51.982 0a51.645 51.645 0 0 0-26.276 7.149A52.046 52.046 0 0 0 8.673 23.361a2.81 2.81 0 0 0 .93 3.976l10.182 5.895v.005ZM15.739 59.735a36.291 36.291 0 0 1-.86-9.985c.074-1.472-.975-2.761-2.44-2.945l-9.005-1.119a2.805 2.805 0 0 0-3.142 2.6 51.003 51.003 0 0 0 .59 11.781c.266 1.595 1.818 2.648 3.39 2.286L15.74 59.73v.004ZM24.736 76.725a37.382 37.382 0 0 1-4.02-5.183 2.782 2.782 0 0 0-3.68-.93l-7.96 4.37a2.812 2.812 0 0 0-1.028 3.95 51.592 51.592 0 0 0 3.986 5.519 2.805 2.805 0 0 0 4.068.27l8.634-7.996ZM46.428 88.349c-4.37-.665-8.643-2.168-12.532-4.37a2.783 2.783 0 0 0-3.697.883l-5.008 7.572a2.804 2.804 0 0 0 .935 3.972 51.655 51.655 0 0 0 15.159 5.882 2.812 2.812 0 0 0 3.369-2.316l1.774-11.628v.005ZM87.618 41.456a36.24 36.24 0 0 1 1.359 9.832c.009 9.4-3.67 18.537-9.845 25.406-3.085 3.435-6.769 6.293-10.894 8.36A34.993 34.993 0 0 1 57.2 88.467a2.786 2.786 0 0 0-2.408 2.927l.555 9.063a2.811 2.811 0 0 0 3.155 2.609 49.601 49.601 0 0 0 16.304-4.92c8.744-4.392 15.928-11.183 20.94-19.315 5.012-8.132 7.879-17.65 7.883-27.547 0-3.605-.38-7.258-1.18-10.894-.345-1.582-1.945-2.56-3.505-2.12l-11.326 3.186Z" fill="#F8DC30"/></svg>