<svg width="190" height="56" fill="none" xmlns="http://www.w3.org/2000/svg"><g id="Group"><g id="Group_2" fill="#59595B"><path id="Vector" d="M75.183 12.64v5.076c0 1.46.394 2.063 1.784 2.063.764 0 1.436-.14 2.016-.324l.51 2.27c-.834.301-2.109.534-3.244.534-2.641 0-3.94-.788-3.94-4.287v-5.329h-1.97V10.14h1.97V8.146l2.874-1.182v3.175H79.1v2.504h-3.916v-.002Z"/><path id="Vector_2" d="M81.322 10.137h2.872v.881c.417-.648 1.322-1.228 3.012-1.228.394 0 .788.023 1.205.07v2.734a7.472 7.472 0 0 0-1.506-.163c-1.436 0-2.711.464-2.711 1.322v8.18h-2.872V10.137Z"/><path id="Vector_3" d="M99.95 21.33c-1.482.577-3.685.927-5.329.927-3.73 0-4.982-.858-4.982-3.94 0-3.336 1.877-3.87 4.635-3.87.998 0 1.923.117 2.92.324 0-2.063-.486-2.571-2.941-2.571-1.299 0-2.595.23-3.57.578l-.533-2.364c1.228-.324 3.012-.624 4.702-.624 3.5 0 5.098 1.065 5.098 4.587v6.952Zm-2.757-4.612c-.648-.14-1.483-.207-2.341-.207-1.623 0-2.2.186-2.2 1.69 0 1.599.44 1.853 2.177 1.853.834 0 1.69-.163 2.364-.394v-2.942Z"/><path id="Vector_4" d="M105.949 21.93h-2.872V10.809c1.436-.557 3.706-1.018 5.583-1.018 3.315 0 4.798 1.321 4.798 5.562v6.58h-2.875v-6.28c0-2.617-.487-3.265-2.525-3.265-.741 0-1.412.093-2.109.277v9.269-.002Z"/><path id="Vector_5" d="M124.414 12.688c-.925-.301-2.247-.558-3.429-.558-1.413 0-2.131.14-2.131 1.366 0 .812.511 1.09 2.434 1.276 2.849.3 4.101 1.181 4.101 3.545 0 3.059-2.038 3.94-5.052 3.94-1.252 0-3.105-.23-4.217-.625l.601-2.27c.858.3 2.317.557 3.499.557 1.576 0 2.318-.208 2.318-1.436 0-.835-.464-1.229-2.525-1.413-2.595-.207-3.986-.928-3.986-3.36 0-3.058 2.063-3.916 5.051-3.916 1.229 0 2.781.255 3.961.649l-.625 2.247v-.002Z"/><path id="Vector_6" d="M131.317 10.137h3.823v2.504h-3.823v9.292h-2.875v-9.292h-1.969v-2.504h1.969V9.35c0-3.43 1.97-4.194 4.288-4.194 1.088 0 2.34.208 3.242.51l-.648 2.271c-.557-.186-1.436-.324-2.13-.324-1.136 0-1.877.394-1.877 1.9v.625Z"/><path id="Vector_7" d="M136.252 15.977c0-4.819 1.877-6.187 5.607-6.187 3.73 0 5.653 1.368 5.653 6.187 0 4.818-1.853 6.28-5.653 6.28s-5.607-1.436-5.607-6.28Zm2.965.046c0 3.266.625 3.917 2.642 3.917 2.016 0 2.688-.648 2.688-3.917 0-3.268-.625-3.916-2.688-3.916s-2.642.534-2.642 3.916Z"/><path id="Vector_8" d="M150.291 10.137h2.872v.881c.417-.648 1.322-1.228 3.012-1.228.394 0 .788.023 1.205.07v2.734a7.473 7.473 0 0 0-1.506-.163c-1.436 0-2.711.464-2.711 1.322v8.18h-2.872V10.137Z"/><path id="Vector_9" d="M161.945 21.93h-2.872V10.809c1.436-.557 3.569-1.018 5.445-1.018 1.322 0 2.317.254 3.012.788 1.275-.464 2.849-.788 4.194-.788 3.313 0 4.635 1.321 4.635 5.562v6.58h-2.875v-6.28c0-2.617-.464-3.265-2.364-3.265-.578 0-1.529.093-2.294.324.208.694.324 1.575.324 2.64v6.582h-2.872v-6.28c0-2.618-.464-3.267-2.364-3.267-.624 0-1.391.117-1.969.278v9.269-.002Z"/><path id="Vector_10" d="M189.329 21.33c-1.482.577-3.685.927-5.329.927-3.73 0-4.982-.858-4.982-3.94 0-3.336 1.877-3.87 4.635-3.87.998 0 1.923.117 2.921.324 0-2.063-.487-2.571-2.942-2.571-1.299 0-2.595.23-3.569.578l-.534-2.364c1.228-.324 3.012-.624 4.702-.624 3.499 0 5.098 1.065 5.098 4.587v6.952Zm-2.757-4.612c-.649-.14-1.483-.207-2.341-.207-1.623 0-2.201.186-2.201 1.69 0 1.599.441 1.853 2.178 1.853.834 0 1.69-.163 2.364-.394v-2.942Z"/></g><g id="Group_3" fill="#59595B"><path id="Vector_11" d="M79.54 33.582c-.925-.3-2.247-.557-3.429-.557-1.413 0-2.13.14-2.13 1.366 0 .811.51 1.089 2.433 1.275 2.85.3 4.1 1.182 4.1 3.546 0 3.058-2.037 3.94-5.05 3.94-1.253 0-3.106-.231-4.218-.625l.602-2.27c.857.3 2.317.556 3.499.556 1.576 0 2.317-.207 2.317-1.436 0-.834-.464-1.228-2.525-1.412-2.594-.208-3.986-.928-3.986-3.36 0-3.058 2.063-3.916 5.051-3.916 1.229 0 2.782.254 3.961.648l-.625 2.247v-.002Z"/><path id="Vector_12" d="M92.931 42.226c-1.483.578-3.686.928-5.33.928-3.729 0-4.98-.858-4.98-3.94 0-3.336 1.876-3.87 4.634-3.87.997 0 1.923.117 2.92.324 0-2.063-.487-2.571-2.941-2.571-1.299 0-2.595.23-3.57.578l-.533-2.364c1.228-.324 3.012-.625 4.702-.625 3.499 0 5.098 1.066 5.098 4.588v6.952Zm-2.758-4.611c-.648-.14-1.482-.208-2.34-.208-1.623 0-2.201.187-2.201 1.69 0 1.6.44 1.854 2.177 1.854.835 0 1.69-.163 2.364-.394v-2.942Z"/><path id="Vector_13" d="M103.494 31.034h2.874v11.122c-1.459.557-3.706 1.019-5.585 1.019-3.313 0-4.796-1.322-4.796-5.562v-6.581h2.872v6.28c0 2.618.488 3.266 2.504 3.266.765 0 1.436-.093 2.131-.3v-9.246.002Zm-4.401-1.366 2.802-2.989h3.081l-3.359 2.989h-2.525Z"/><path id="Vector_14" d="M119.966 42.296c-1.275.51-3.452.858-5.145.858-3.893 0-5.676-1.39-5.676-6.234s1.97-6.234 5.121-6.234c1.345 0 2.201.325 2.828.672v-5.26h2.872v16.198Zm-2.872-8.04c0-.695-1.019-1.136-2.317-1.136-2.017 0-2.665.812-2.665 3.754 0 3.221.672 3.823 2.712 3.823.787 0 1.669-.14 2.27-.348v-6.093Z"/><path id="Vector_15" d="M132.615 42.503c-1.182.394-2.918.648-4.124.648-3.405 0-5.723-1.436-5.723-6.28s2.063-6.187 5.493-6.187c3.73 0 5.352 1.275 5.142 6.998h-7.623c.024 2.525.996 3.036 3.059 3.036.834 0 2.387-.21 3.315-.488l.464 2.271-.003.002Zm-6.811-7.021h4.958c-.093-2.087-.695-2.525-2.34-2.525-1.807 0-2.434.578-2.618 2.525Z"/></g><g id="Group_4" fill="#fff"><path id="Vector_16" d="M24.209 37.529V25.807a1.49 1.49 0 0 0-1.49-1.49h-2.524a1.49 1.49 0 0 1-1.49-1.489v-3.291c0-.823.667-1.49 1.49-1.49H35.54c.823 0 1.49.667 1.49 1.49v3.291a1.49 1.49 0 0 1-1.49 1.49h-2.525a1.49 1.49 0 0 0-1.49 1.49v11.72a1.49 1.49 0 0 1-1.489 1.49h-4.334a1.49 1.49 0 0 1-1.49-1.49h-.004Z"/><path id="Vector_17" d="M11.129 18.194a19.948 19.948 0 0 1 7.126-7.183 19.722 19.722 0 0 1 10.05-2.732c3.434 0 6.637.865 9.448 2.39a19.924 19.924 0 0 1 6.18 5.233 1.485 1.485 0 0 0 2.003.317l4.014-2.711c.711-.48.872-1.462.352-2.145a27.747 27.747 0 0 0-8.819-7.562A27.532 27.532 0 0 0 28.305.462c-5.103 0-9.91 1.392-14.018 3.814a27.766 27.766 0 0 0-9.087 8.65 1.5 1.5 0 0 0 .497 2.12l5.432 3.145v.003Z"/><path id="Vector_18" d="M8.97 32.33a19.362 19.362 0 0 1-.46-5.327 1.496 1.496 0 0 0-1.3-1.571l-4.805-.597A1.497 1.497 0 0 0 .73 26.222a27.21 27.21 0 0 0 .315 6.285c.142.851.97 1.413 1.809 1.22l6.117-1.4v.003Z"/><path id="Vector_19" d="M13.77 41.394a19.95 19.95 0 0 1-2.145-2.765 1.484 1.484 0 0 0-1.963-.497l-4.247 2.332a1.5 1.5 0 0 0-.548 2.107 27.523 27.523 0 0 0 2.126 2.944c.548.662 1.54.73 2.17.145l4.607-4.266Z"/><path id="Vector_20" d="M25.342 47.595a19.61 19.61 0 0 1-6.686-2.331 1.485 1.485 0 0 0-1.972.47l-2.672 4.04a1.496 1.496 0 0 0 .5 2.12 27.556 27.556 0 0 0 8.086 3.138 1.5 1.5 0 0 0 1.797-1.236l.947-6.203v.002Z"/><path id="Vector_21" d="M47.316 22.579c.492 1.75.725 3.506.725 5.245.005 5.015-1.958 9.89-5.252 13.554a19.683 19.683 0 0 1-5.812 4.46 18.667 18.667 0 0 1-5.889 1.82 1.486 1.486 0 0 0-1.284 1.562l.296 4.835a1.5 1.5 0 0 0 1.683 1.392 26.462 26.462 0 0 0 8.698-2.625c4.665-2.343 8.497-5.966 11.171-10.304 2.674-4.339 4.203-9.416 4.206-14.696 0-1.924-.203-3.872-.63-5.812a1.5 1.5 0 0 0-1.87-1.13l-6.042 1.699Z"/></g></g></svg>