<svg width="34" height="35" fill="none" xmlns="http://www.w3.org/2000/svg"><path d="M20.316 24.731a5.256 5.256 0 0 0 1.927-4.068A5.27 5.27 0 0 0 16.98 15.4a5.27 5.27 0 0 0-5.264 5.264c0 1.637.751 3.102 1.927 4.068a7.404 7.404 0 0 0-4.061 6.6v2.135c0 .55.446.996.996.996h12.803c.55 0 .996-.446.996-.996v-2.135a7.403 7.403 0 0 0-4.06-6.6Zm-3.336-7.34a3.275 3.275 0 0 1 3.271 3.272 3.275 3.275 0 0 1-3.271 3.272 3.275 3.275 0 0 1-3.272-3.272 3.275 3.275 0 0 1 3.272-3.271Zm5.405 15.08h-10.81v-1.14a5.41 5.41 0 0 1 5.406-5.404 5.41 5.41 0 0 1 5.404 5.404v1.14ZM9.314 11.815l1.76-2.054a.997.997 0 0 0-.525-1.617l-2.632-.629-1.41-2.308c-.373-.611-1.297-.659-1.7 0l-1.41 2.308-2.632.629A.997.997 0 0 0 .24 9.76L2 11.815l-.216 2.697a.996.996 0 0 0 1.375.999l2.498-1.039 2.498 1.039a.997.997 0 0 0 1.375-1l-.216-2.696Zm-1.782-.981a.996.996 0 0 0-.236.727l.118 1.485-1.374-.572a.997.997 0 0 0-.765 0l-1.375.572.119-1.485a.996.996 0 0 0-.237-.727l-.968-1.131 1.448-.346a.997.997 0 0 0 .619-.45l.776-1.27.776 1.27c.138.227.361.388.62.45l1.448.346-.969 1.13ZM32 11.815l1.76-2.054a.997.997 0 0 0-.525-1.617l-2.631-.629-1.41-2.308c-.374-.611-1.298-.659-1.7 0l-1.411 2.308-2.632.629a.997.997 0 0 0-.525 1.617l1.76 2.054-.216 2.697a.996.996 0 0 0 1.375.999l2.498-1.039 2.498 1.039a.997.997 0 0 0 1.375-1L32 11.816Zm-1.782-.981a.996.996 0 0 0-.236.727l.119 1.485-1.375-.572a.997.997 0 0 0-.765 0l-1.375.572.119-1.485a.996.996 0 0 0-.237-.727L25.5 9.703l1.448-.346a.997.997 0 0 0 .619-.45l.776-1.27.776 1.27c.139.227.361.388.62.45l1.448.346-.969 1.13ZM20.648 7.547l1.76-2.055a.997.997 0 0 0-.526-1.616l-2.631-.629L17.84.94c-.374-.611-1.298-.659-1.7 0L14.73 3.247l-2.632.629a.997.997 0 0 0-.525 1.616l1.76 2.055-.216 2.697a.996.996 0 0 0 1.375 1l2.499-1.04 2.497 1.04a.997.997 0 0 0 1.376-1l-.216-2.697Zm-1.783-.981a.997.997 0 0 0-.236.727l.119 1.484-1.375-.571a.997.997 0 0 0-.765 0l-1.375.571.119-1.484a.995.995 0 0 0-.236-.727l-.97-1.131 1.45-.346a.996.996 0 0 0 .618-.45l.777-1.27.776 1.27c.138.226.36.388.618.45l1.449.346-.969 1.13Z" fill="#383838"/></svg>